<mxfile host="app.diagrams.net" modified="2021-09-15T17:25:19.351Z" agent="5.0 (Windows NT 10.0; Win64; x64) AppleWebKit/537.36 (KHTML, like Gecko) Chrome/93.0.4577.82 Safari/537.36" etag="S8U0xK6miyyNpALs9MGh" version="15.2.7" type="github">
  <diagram id="zFZVGyq1nd0uwfa3rUeY" name="Page-1">
    <mxGraphModel dx="1038" dy="548" grid="0" gridSize="10" guides="1" tooltips="1" connect="1" arrows="1" fold="1" page="1" pageScale="1" pageWidth="850" pageHeight="1100" math="0" shadow="0">
      <root>
        <mxCell id="0" />
        <mxCell id="1" parent="0" />
        <mxCell id="hc98vc_X6tRmouUurkKF-1" value="Homepage" style="rounded=1;whiteSpace=wrap;html=1;arcSize=50;" parent="1" vertex="1">
          <mxGeometry x="72" y="180" width="106" height="37" as="geometry" />
        </mxCell>
        <mxCell id="hc98vc_X6tRmouUurkKF-10" value="" style="rounded=1;whiteSpace=wrap;html=1;arcSize=50;" parent="1" vertex="1">
          <mxGeometry x="533" y="180" width="106" height="37" as="geometry" />
        </mxCell>
        <mxCell id="hc98vc_X6tRmouUurkKF-11" value="" style="rounded=1;whiteSpace=wrap;html=1;arcSize=50;" parent="1" vertex="1">
          <mxGeometry x="143" y="315" width="106" height="37" as="geometry" />
        </mxCell>
        <mxCell id="hc98vc_X6tRmouUurkKF-12" value="" style="rounded=1;whiteSpace=wrap;html=1;arcSize=50;" parent="1" vertex="1">
          <mxGeometry x="533" y="270" width="106" height="37" as="geometry" />
        </mxCell>
        <mxCell id="hc98vc_X6tRmouUurkKF-13" value="" style="rounded=1;whiteSpace=wrap;html=1;arcSize=50;" parent="1" vertex="1">
          <mxGeometry x="219" y="180" width="106" height="37" as="geometry" />
        </mxCell>
        <mxCell id="hc98vc_X6tRmouUurkKF-14" value="" style="rounded=1;whiteSpace=wrap;html=1;arcSize=50;" parent="1" vertex="1">
          <mxGeometry x="364" y="180" width="106" height="37" as="geometry" />
        </mxCell>
      </root>
    </mxGraphModel>
  </diagram>
</mxfile>
